<svg width="220" height="72" viewBox="0 0 220 72" fill="none" xmlns="http://www.w3.org/2000/svg">
  <rect width="220" height="72" rx="18" fill="white"/>
  <rect x="16" y="14" width="36" height="44" rx="10" fill="#0F172A"/>
  <rect x="24" y="22" width="20" height="28" rx="4" fill="white"/>
  <rect x="29" y="27" width="10" height="3" rx="1.5" fill="#0F172A"/>
  <rect x="29" y="33" width="10" height="3" rx="1.5" fill="#0F172A"/>
  <rect x="31.5" y="40" width="5" height="5" rx="2.5" fill="#0F172A"/>
  <path d="M84 25H95.2C101.5 25 105.6 28.1 105.6 33.4C105.6 38.9 101.3 42 94.8 42H89.8V49H84V25ZM94.6 37.4C97.9 37.4 99.8 36 99.8 33.5C99.8 31 97.9 29.6 94.6 29.6H89.8V37.4H94.6Z" fill="#0F172A"/>
  <path d="M110.6 25H116.4V39.1C116.4 44.1 118.7 46.1 122.5 46.1C126.3 46.1 128.6 44.1 128.6 39.1V25H134.4V39.3C134.4 47 130 49.5 122.5 49.5C115 49.5 110.6 47 110.6 39.3V25Z" fill="#0F172A"/>
  <path d="M140.3 25H146.1L153.3 36.7L160.5 25H166.3V49H160.8V33.8L154.1 44.6H152.3L145.7 33.9V49H140.3V25Z" fill="#0F172A"/>
  <path d="M172.3 25H183.5C189.8 25 193.9 28.1 193.9 33.4C193.9 38.9 189.6 42 183.1 42H178.1V49H172.3V25ZM182.9 37.4C186.2 37.4 188.1 36 188.1 33.5C188.1 31 186.2 29.6 182.9 29.6H178.1V37.4H182.9Z" fill="#0F172A"/>
</svg>
