<?xml version="1.0" encoding="UTF-8"?>
<!DOCTYPE svg PUBLIC "-//W3C//DTD SVG 1.1//EN" "http://www.w3.org/Graphics/SVG/1.1/DTD/svg11.dtd">
<!-- Creator: CorelDRAW -->
<svg xmlns="http://www.w3.org/2000/svg" xml:space="preserve" width="3.6098in" height="3.82479in" version="1.1" style="shape-rendering:geometricPrecision; text-rendering:geometricPrecision; image-rendering:optimizeQuality; fill-rule:evenodd; clip-rule:evenodd"
viewBox="0 0 2595.33 2749.9"
 xmlns:xlink="http://www.w3.org/1999/xlink"
 xmlns:xodm="http://www.corel.com/coreldraw/odm/2003">
 <defs>
  <style type="text/css">
   <![CDATA[
    .fil1 {fill:url(#id0);fill-rule:nonzero}
    .fil0 {fill:url(#id1);fill-rule:nonzero}
   ]]>
  </style>
  <linearGradient id="id0" gradientUnits="userSpaceOnUse" x1="885" y1="684.14" x2="885" y2="2563.94">
   <stop offset="0" style="stop-opacity:1; stop-color:#8FD32F"/>
   <stop offset="0.141176" style="stop-opacity:1; stop-color:#82CE32"/>
   <stop offset="0.4" style="stop-opacity:1; stop-color:#60C43A"/>
   <stop offset="0.74902" style="stop-opacity:1; stop-color:#2AB346"/>
   <stop offset="1" style="stop-opacity:1; stop-color:#00A651"/>
  </linearGradient>
  <linearGradient id="id1" gradientUnits="userSpaceOnUse" x1="-6.22" y1="1118.52" x2="2592.33" y2="1118.52">
   <stop offset="0" style="stop-opacity:1; stop-color:#F2C23E"/>
   <stop offset="0.290196" style="stop-opacity:1; stop-color:#8FD32F"/>
   <stop offset="0.34902" style="stop-opacity:1; stop-color:#82CE32"/>
   <stop offset="0.458824" style="stop-opacity:1; stop-color:#60C43A"/>
   <stop offset="0.611765" style="stop-opacity:1; stop-color:#2AB346"/>
   <stop offset="0.721569" style="stop-opacity:1; stop-color:#00A651"/>
   <stop offset="1" style="stop-opacity:1; stop-color:#00A651"/>
  </linearGradient>
 </defs>
 <g id="Layer_x0020_1">
  <metadata id="CorelCorpID_0Corel-Layer"/>
  <g id="Layer_2">
   <path class="fil0" d="M1472.31 0l-1472.31 0c66.58,254.78 281.82,449.43 547.46,485.68 29.43,4.04 59.46,6.14 90.02,6.14l834.83 0c348.55,0 631.19,282.57 631.19,631.19 0,348.63 -282.64,631.19 -631.19,631.19l-505.75 0c-123.27,0 -223.18,99.91 -223.18,223.18l0 -0 0 268.64 718.14 0c621.76,0 1133.5,-500.73 1133.8,-1122.56 0.22,-620.48 -502.68,-1123.46 -1123.01,-1123.46z"/>
  </g>
  <g id="Layer_3">
   <path class="fil1" d="M1301.71 1556.42l0 -191.2 -687.14 0c-45.69,0 -82.75,37.07 -82.75,82.75l0 664.45c0,30.56 -2.1,60.59 -6.14,90.02 -36.25,265.64 -230.89,480.88 -485.68,547.46l0 -1472.31c0,-9.74 0,-19.32 0.07,-28.76 12.96,-192.55 163.27,-347.43 353.79,-367.5l83.43 0 824.42 -0.52 0 -191.2 438.5 433.4 -438.5 433.4z"/>
  </g>
 </g>
</svg>
