<?xml version="1.0" encoding="UTF-8"?>
<!DOCTYPE svg PUBLIC "-//W3C//DTD SVG 1.1//EN" "http://www.w3.org/Graphics/SVG/1.1/DTD/svg11.dtd">
<!-- Creator: CorelDRAW -->
<svg xmlns="http://www.w3.org/2000/svg" xml:space="preserve" width="3.55531in" height="0.852768in" version="1.1" style="shape-rendering:geometricPrecision; text-rendering:geometricPrecision; image-rendering:optimizeQuality; fill-rule:evenodd; clip-rule:evenodd"
viewBox="0 0 2559.42 613.89"
 xmlns:xlink="http://www.w3.org/1999/xlink"
 xmlns:xodm="http://www.corel.com/coreldraw/odm/2003">
 <defs>
  <style type="text/css">
   <![CDATA[
    .str0 {stroke:black;stroke-width:7.5;stroke-miterlimit:2.61313}
    .str1 {stroke:#231F20;stroke-width:7.5;stroke-miterlimit:2.61313}
    .fil2 {fill:none;fill-rule:nonzero}
    .fil0 {fill:#FEFEFE;fill-rule:nonzero}
    .fil1 {fill:url(#id0);fill-rule:nonzero}
   ]]>
  </style>
  <linearGradient id="id0" gradientUnits="userSpaceOnUse" x1="54127.37" y1="-83159.79" x2="56436.77" y2="-81190.57">
   <stop offset="0" style="stop-opacity:1; stop-color:#8FD32F"/>
   <stop offset="0.141176" style="stop-opacity:1; stop-color:#82CE32"/>
   <stop offset="0.4" style="stop-opacity:1; stop-color:#60C43A"/>
   <stop offset="0.74902" style="stop-opacity:1; stop-color:#2AB346"/>
   <stop offset="1" style="stop-opacity:1; stop-color:#00A651"/>
  </linearGradient>
 </defs>
 <g id="Layer_x0020_1">
  <metadata id="CorelCorpID_0Corel-Layer"/>
  <g id="_2076311773920">
   <path class="fil0" d="M-0 504.49l0 -324.25 144.28 0c28.8,0 52.64,9.3 71.46,27.9 18.82,18.6 28.19,42.74 28.19,72.44 0,29.7 -9.45,53.09 -28.42,70.19 -18.97,17.1 -43.57,25.65 -73.86,25.65l-65.31 -0 0 128.08 -76.34 0zm76.34 -175.77l51.59 0c26.47,0 39.67,-15.9 39.67,-47.69 0,-16.65 -3.6,-29.7 -10.8,-39.07 -7.2,-9.37 -16.95,-14.1 -29.32,-14.1l-51.14 0 0 100.78 0 0.07z"/>
   <path class="fil0" d="M335.72 508.54c-29.4,0 -50.69,-7.27 -63.74,-21.82 -13.12,-14.55 -19.65,-31.79 -19.65,-51.74 0,-19.95 6.82,-38.62 20.55,-53.09 13.65,-14.55 34.04,-21.82 61.12,-21.82 11.17,0 22.2,1.35 33.07,4.05 10.87,2.7 18.82,5.47 23.85,8.17l7.95 4.05 0 -25.87c0,-16.35 -3.67,-29.02 -11.02,-37.94 -7.35,-8.92 -17.77,-13.42 -31.35,-13.42 -10.57,0 -20.4,2.77 -29.32,8.4 -9,5.62 -15.37,11.25 -19.2,17.02l-5.33 8.17 -33.07 -14.1c19.42,-41.47 53.84,-62.24 103.26,-62.24 31.2,0 55.72,8.25 73.64,24.75 17.92,16.5 26.92,39.89 26.92,70.19l0 153.05 -74.54 0 0 -13.2c-15,11.47 -35.99,17.25 -63.06,17.25l-0.08 0.15zm29.1 -41.77c5.03,0 10.27,-0.67 15.9,-2.02 5.55,-1.35 9.97,-2.62 13.27,-3.82l4.87 -2.25 0 -49.94c-11.77,-4.27 -22.8,-6.37 -33.07,-6.37 -10.27,0 -19.72,2.77 -27.37,8.4 -7.65,5.62 -11.47,13.57 -11.47,23.85 0,10.27 3.75,18.22 11.25,23.85 7.5,5.63 16.42,8.4 26.7,8.4l-0.08 -0.08z"/>
   <polygon class="fil0" points="559.79,613.89 595.48,510.34 493.57,261.45 572.54,261.45 633.88,440.37 695.22,261.45 744.18,261.45 606.13,613.82 559.79,613.82 "/>
   <polygon class="fil0" points="881.34,504.49 881.34,180.24 972.67,180.24 1046.76,306 1117.32,180.24 1193.66,180.24 1193.66,504.49 1117.32,504.49 1117.32,272.93 1032.21,424.18 927.68,252.53 927.68,504.56 881.34,504.56 "/>
   <polygon class="fil0" points="1291.6,613.89 1327.29,510.34 1225.38,261.45 1304.34,261.45 1365.68,440.37 1427.03,261.45 1475.99,261.45 1337.94,613.82 1291.6,613.82 "/>
   <path class="fil0" d="M1613.14 504.49l0 -324.25 120.88 0c44.99,0 83.39,15.82 115.11,47.47 31.72,31.64 47.62,69.74 47.62,114.21 0,44.47 -16.27,83.46 -48.74,115.11 -32.47,31.64 -71.09,47.47 -115.78,47.47l-119.08 0zm76.34 -47.69l50.69 0c23.25,0 42.37,-11.55 57.37,-34.72 15,-23.17 22.5,-49.72 22.5,-79.71 0,-29.99 -7.57,-57.29 -22.72,-80.16 -15.15,-22.87 -34.19,-34.27 -57.14,-34.27l-50.69 -0 0 228.86z"/>
   <polygon class="fil0" points="1930.79,504.49 1930.79,261.53 2005.78,261.53 2005.78,504.49 "/>
   <path class="fil0" d="M2197.23 256.95c27.07,0 48.44,8.4 64.19,25.2 15.75,16.8 23.62,39.29 23.62,67.41l0 154.85 -74.54 0 0 -152.15c0,-18.45 -2.77,-31.94 -8.4,-40.42 -5.62,-8.47 -14.4,-12.75 -26.47,-12.75 -19.42,0 -35.99,12.45 -49.87,37.27l0 168.05 -74.54 0 0 -242.96 74.54 0 0 29.1c17.32,-22.42 41.17,-33.59 71.46,-33.59z"/>
   <path class="fil0" d="M2465.01 466.32c12.67,0 23.32,-2.47 32.02,-7.5 8.7,-5.03 18.15,-12.82 28.42,-23.4l23.4 16.8c-7.35,17.25 -20.4,31.05 -39.07,41.32 -18.67,10.27 -39.37,15.45 -61.94,15.45 -35.32,0 -65.69,-11.92 -91.33,-35.84 -25.57,-23.92 -38.39,-53.32 -38.39,-88.11 0,-15.45 2.7,-30.6 8.17,-45.44 5.4,-14.85 13.2,-28.42 23.4,-40.87 10.12,-12.45 23.55,-22.5 40.12,-30.22 16.57,-7.72 35.24,-11.55 55.79,-11.55 35.54,0 63.44,11.77 83.61,35.39 20.17,23.62 30.22,57.81 30.22,102.66l-165.42 0.01c2.32,21.82 9.67,39.14 22.05,51.97 12.37,12.82 28.65,19.27 48.97,19.27l0 0.07zm10.57 -151.85c-9.15,-9.82 -19.57,-14.77 -31.35,-14.77 -11.77,0 -21.97,4.8 -30.67,14.32 -8.7,9.52 -14.62,22.5 -17.85,38.84l93.96 0c-0.3,-15.75 -5.03,-28.49 -14.1,-38.39z"/>
  </g>
  <g id="Layer_6">
   <path class="fil1 str0" d="M1937.17 127.75c5.33,-22.57 17.32,-43.94 35.62,-58.27 12.37,-9.67 27.07,-15.75 41.54,-21.82 13.65,-5.7 27.37,-11.32 41.02,-17.02 14.7,-6.07 31.27,-14.25 35.02,-29.7 0.97,3.75 2.47,7.27 3.75,10.87 16.72,45.97 7.13,100.56 -24.3,138.05 -22.12,26.39 -45.37,38.47 -67.64,43.87 -11.77,2.85 -20.92,4.65 -65.24,-0.6 0,0 -3.67,-49.04 0.15,-65.39l0.07 0z"/>
   <path class="fil2 str1" d="M1904.32 205.44c79.26,-30.97 144.65,-88.94 179.52,-159.2"/>
  </g>
 </g>
</svg>
