<svg xmlns="http://www.w3.org/2000/svg" viewBox="0 0 420 300" role="img" aria-labelledby="t">
<title id="t">BRANZINO</title><defs><radialGradient id="g"><stop offset="0" stop-color="#d6c787" stop-opacity=".28"/><stop offset="1" stop-color="#0c4865" stop-opacity="0"/></radialGradient></defs>
<rect width="420" height="300" rx="36" fill="#0c4865"/><circle cx="210" cy="145" r="118" fill="#060707" opacity=".8"/><circle cx="210" cy="145" r="108" fill="url(#g)"/><circle cx="120" cy="78" r="20" fill="#d6c787" opacity="0.55"/><circle cx="178" cy="78" r="25" fill="#d6c787" opacity="0.65"/><circle cx="236" cy="78" r="20" fill="#d6c787" opacity="0.75"/><circle cx="120" cy="130" r="25" fill="#d6c787" opacity="0.55"/><circle cx="178" cy="130" r="20" fill="#d6c787" opacity="0.65"/><circle cx="236" cy="130" r="25" fill="#d6c787" opacity="0.75"/><path d="M90 48c18 14 20 35 5 50" fill="none" stroke="#f8f1df" stroke-width="3" opacity=".7"/><path d="M112 64c18 14 20 35 5 50" fill="none" stroke="#f8f1df" stroke-width="3" opacity=".7"/><path d="M134 48c18 14 20 35 5 50" fill="none" stroke="#f8f1df" stroke-width="3" opacity=".7"/><path d="M156 64c18 14 20 35 5 50" fill="none" stroke="#f8f1df" stroke-width="3" opacity=".7"/>
<text x="28" y="270" fill="#fff" font-family="Arial, sans-serif" font-size="22" font-weight="700" letter-spacing="4">BRANZINO</text><text x="355" y="270" fill="#d6c787" font-family="Georgia, serif" font-size="18">06</text></svg>