<svg width="220" height="88" viewBox="0 0 220 88" fill="none" xmlns="http://www.w3.org/2000/svg">
  <rect width="220" height="88" rx="22" fill="none"/>
  <rect x="18" y="18" width="34" height="52" rx="10" fill="white"/>
  <rect x="27" y="29" width="16" height="18" rx="4" stroke="#0B1020" stroke-width="3"/>
  <circle cx="35" cy="57" r="3" fill="#0B1020"/>
  <path d="M72 34.5C72 29.8 75.7 26 80.5 26H104.5C109 26 112.5 29.1 112.5 33.2C112.5 36 110.7 38.4 107.7 39.5C111.7 40.6 114 43.4 114 47.3C114 52.2 109.8 56 104.6 56H79V34.5H72ZM88.2 31.9V37.3H102.1C104.6 37.3 106.2 36.2 106.2 34.4C106.2 32.8 104.7 31.9 102.1 31.9H88.2ZM88.2 42.5V50.1H102.9C106 50.1 107.8 48.8 107.8 46.4C107.8 44 106 42.5 102.8 42.5H88.2Z" fill="white"/>
  <path d="M121.5 56V35.4H127.4V56H121.5ZM124.5 32.4C122.3 32.4 120.7 30.9 120.7 29C120.7 27.1 122.3 25.6 124.5 25.6C126.6 25.6 128.3 27.1 128.3 29C128.3 30.9 126.6 32.4 124.5 32.4Z" fill="white"/>
  <path d="M131.8 56V35.4H137.2V38.3C138.9 36.1 141.5 34.9 144.7 34.9C150.1 34.9 153.5 38.2 153.5 43.7V56H147.6V44.8C147.6 41.4 145.8 39.5 142.7 39.5C139.4 39.5 137.7 41.7 137.7 45.2V56H131.8Z" fill="white"/>
  <path d="M156.9 45.7C156.9 39.4 161.7 34.9 168.3 34.9C174.8 34.9 179.4 39.3 179.4 45.5C179.4 46.3 179.3 47.1 179.2 47.5H162.8C163.4 50.4 165.7 52.1 169 52.1C171.3 52.1 173.3 51.3 174.7 49.8L178 53.2C175.5 55.5 172.5 56.5 168.7 56.5C161.7 56.5 156.9 52.2 156.9 45.7ZM162.9 43.7H173.5C173 41.1 170.9 39.3 168.2 39.3C165.3 39.3 163.3 41 162.9 43.7Z" fill="white"/>
</svg>
