<svg xmlns="http://www.w3.org/2000/svg" style="display:none"><defs>
  <symbol id="pmd-i-dashboard" viewBox="0 0 24 24"><path d="M3 11.5 12 4l9 7.5"/><path d="M5.5 10.5V20h5.2v-5.2h2.6V20h5.2v-9.5"/></symbol>
  <symbol id="pmd-i-orders" viewBox="0 0 24 24"><path d="M6 7h14l-1.4 7.2a2 2 0 0 1-2 1.6H9.2a2 2 0 0 1-2-1.7L6 7Z"/><path d="M6 7 5.3 4H3"/><circle cx="9" cy="20" r="1"/><circle cx="17" cy="20" r="1"/></symbol>
  <symbol id="pmd-i-kds" viewBox="0 0 24 24"><rect x="3.5" y="4.5" width="17" height="12" rx="1.7"/><path d="M9 20h6"/><path d="M12 16.5V20"/></symbol>
  <symbol id="pmd-i-tables" viewBox="0 0 24 24"><path d="M5 7h14"/><path d="M7 7v8"/><path d="M17 7v8"/><path d="M4.5 15h15"/><path d="M6.5 18.5h11"/><path d="M8 18.5v2"/><path d="M16 18.5v2"/></symbol>
  <symbol id="pmd-i-reservations" viewBox="0 0 24 24"><rect x="4" y="5.5" width="16" height="14" rx="2"/><path d="M8 3.5v4"/><path d="M16 3.5v4"/><path d="M4 10h16"/><path d="m8.2 15 2.2 2.2 5.4-5.4"/></symbol>
  <symbol id="pmd-i-menu" viewBox="0 0 24 24"><rect x="5" y="3.8" width="14" height="16.4" rx="1.8"/><path d="M8.5 8h7"/><path d="M8.5 12h7"/><path d="M8.5 16h4.5"/><path d="M5 7h-1"/><path d="M5 12h-1"/><path d="M5 17h-1"/></symbol>
  <symbol id="pmd-i-payments" viewBox="0 0 24 24"><rect x="3.5" y="6" width="17" height="12" rx="2"/><path d="M3.5 10h17"/><path d="M7.5 15h3"/></symbol>
  <symbol id="pmd-i-customers" viewBox="0 0 24 24"><circle cx="9" cy="8" r="3"/><path d="M3.5 20a5.5 5.5 0 0 1 11 0"/><circle cx="16.5" cy="9.2" r="2.3"/><path d="M14.5 19.8a4.4 4.4 0 0 1 6 0"/></symbol>
  <symbol id="pmd-i-staff" viewBox="0 0 24 24"><circle cx="12" cy="7.5" r="3.2"/><path d="M5.5 20a6.5 6.5 0 0 1 13 0"/></symbol>
  <symbol id="pmd-i-reports" viewBox="0 0 24 24"><path d="M4 20h16"/><path d="M6.5 17v-5"/><path d="M12 17V5"/><path d="M17.5 17V9"/><path d="M6 10l4-4 3.5 3.5L18.5 5"/></symbol>
  <symbol id="pmd-i-promotions" viewBox="0 0 24 24"><path d="M20 13 13 20 4 11V4h7l9 9Z"/><circle cx="8.2" cy="8.2" r="1"/><path d="m12 8 4 4"/></symbol>
  <symbol id="pmd-i-settings" viewBox="0 0 24 24"><path d="M12 15.2a3.2 3.2 0 1 0 0-6.4 3.2 3.2 0 0 0 0 6.4Z"/><path d="M19.4 13.5c.1-.5.1-1 .1-1.5s0-1-.1-1.5l2-1.5-2-3.4-2.4 1a8.4 8.4 0 0 0-2.6-1.5L14 2.5h-4l-.4 2.6A8.4 8.4 0 0 0 7 6.6l-2.4-1-2 3.4 2 1.5c-.1.5-.1 1-.1 1.5s0 1 .1 1.5l-2 1.5 2 3.4 2.4-1a8.4 8.4 0 0 0 2.6 1.5l.4 2.6h4l.4-2.6a8.4 8.4 0 0 0 2.6-1.5l2.4 1 2-3.4-2-1.5Z"/></symbol>
  <symbol id="pmd-i-coupons" viewBox="0 0 24 24"><path d="M5 12a2 2 0 0 0 0-4V6h14v2a2 2 0 0 0 0 4v2a2 2 0 0 0 0 4v2H5v-2a2 2 0 0 0 0-4v-2Z"/><path d="M9 8.5h.01"/><path d="M15 15.5h.01"/><path d="M15.5 8.5l-7 7"/></symbol>
  <symbol id="pmd-i-restaurant" viewBox="0 0 24 24"><path d="M7 3v8"/><path d="M4.5 3v5.5A2.5 2.5 0 0 0 7 11"/><path d="M9.5 3v5.5A2.5 2.5 0 0 1 7 11"/><path d="M7 11v10"/><path d="M17 3c-2 1.7-3 4.1-3 7v2h3v9"/></symbol>
  <symbol id="pmd-i-locations" viewBox="0 0 24 24"><path d="M12 21s6-5.1 6-11a6 6 0 1 0-12 0c0 5.9 6 11 6 11Z"/><circle cx="12" cy="10" r="2"/></symbol>
  <symbol id="pmd-i-categories" viewBox="0 0 24 24"><path d="M5 7h14"/><path d="M5 12h14"/><path d="M5 17h14"/><circle cx="3" cy="7" r=".4"/><circle cx="3" cy="12" r=".4"/><circle cx="3" cy="17" r=".4"/></symbol>
  <symbol id="pmd-i-mealtimes" viewBox="0 0 24 24"><circle cx="12" cy="12" r="8"/><path d="M12 7.5V12l3.2 2"/></symbol>
  <symbol id="pmd-i-marketing" viewBox="0 0 24 24"><path d="M4 13h3l9 5V6l-9 5H4v2Z"/><path d="M7 13v4"/><path d="M18.5 9.5a4 4 0 0 1 0 5"/></symbol>
  <symbol id="pmd-i-design" viewBox="0 0 24 24"><path d="M14.8 4.2 19.8 9.2"/><path d="M4 20l3.2-.7 11.3-11.3a2 2 0 0 0-2.8-2.8L4.4 16.5 4 20Z"/><path d="M12.8 6.2l5 5"/></symbol>
  <symbol id="pmd-i-localisation" viewBox="0 0 24 24"><circle cx="12" cy="12" r="8.5"/><path d="M3.5 12h17"/><path d="M12 3.5c2.2 2.4 3.3 5.2 3.3 8.5S14.2 18.1 12 20.5"/><path d="M12 3.5C9.8 5.9 8.7 8.7 8.7 12s1.1 6.1 3.3 8.5"/></symbol>
  <symbol id="pmd-i-languages" viewBox="0 0 24 24"><path d="M4 5h10"/><path d="M9 5v2"/><path d="M6 9c1.3 2.5 3.4 4.4 6.3 5.5"/><path d="M12 9c-1.1 2.5-3.1 4.5-6 6"/><path d="M14 20l3.5-8 3.5 8"/><path d="M15.3 17h4.4"/></symbol>
  <symbol id="pmd-i-currencies" viewBox="0 0 24 24"><path d="M12 3v18"/><path d="M16.5 7.5c-.8-1-2.2-1.5-4-1.5-2.2 0-3.8 1-3.8 2.7 0 4 7.8 2 7.8 6.4 0 1.8-1.6 2.9-4.1 2.9-2 0-3.6-.6-4.6-1.8"/></symbol>
  <symbol id="pmd-i-countries" viewBox="0 0 24 24"><path d="M5 21V4"/><path d="M5 5h12l-1.2 4L17 13H5"/></symbol>
  <symbol id="pmd-i-tools" viewBox="0 0 24 24"><path d="M14.7 6.3a4.3 4.3 0 0 0 5 5L11 20a2.1 2.1 0 0 1-3-3l8.7-8.7a4.3 4.3 0 0 1-2-2Z"/><circle cx="9.5" cy="18.5" r=".5"/></symbol>
  <symbol id="pmd-i-kitchen-display" viewBox="0 0 24 24"><rect x="3.5" y="4.5" width="17" height="12" rx="1.7"/><path d="M9 20h6"/><path d="M12 16.5V20"/><path d="M8 8.5h8"/><path d="M8 12h5"/></symbol>
  <symbol id="pmd-i-media-manager" viewBox="0 0 24 24"><rect x="4" y="5" width="16" height="14" rx="2"/><circle cx="9" cy="10" r="1.4"/><path d="m6.5 16 3.3-3 2.7 2.3 2.1-2 2.9 2.7"/></symbol>
  <symbol id="pmd-i-reviews" viewBox="0 0 24 24"><path d="M5 5h14v10H8l-3 3V5Z"/><path d="M8 9h8"/><path d="M8 12h5"/></symbol>
  <symbol id="pmd-i-quick-mode" viewBox="0 0 24 24"><path d="M13 2 4.5 13h6L9 22l10.5-13H13l0-7Z"/></symbol>
  <symbol id="pmd-i-system-logs" viewBox="0 0 24 24"><path d="M7 3.5h7l3 3V20.5H7V3.5Z"/><path d="M14 3.5v4h4"/><path d="M9.5 12h5"/><path d="M9.5 15.5h5"/></symbol>
  <symbol id="pmd-i-pos-sync" viewBox="0 0 24 24"><path d="M7 7a6.5 6.5 0 0 1 10.7-2.5L20 7"/><path d="M20 4.5V7h-2.5"/><path d="M17 17a6.5 6.5 0 0 1-10.7 2.5L4 17"/><path d="M4 19.5V17h2.5"/><circle cx="12" cy="12" r="2.5"/></symbol>
  <symbol id="pmd-i-terminal-devices" viewBox="0 0 24 24"><rect x="6" y="3.5" width="12" height="17" rx="2"/><path d="M9 7h6"/><path d="M9 11h6"/><path d="M9 15h2"/><path d="M13 15h2"/></symbol>
  <symbol id="pmd-i-tips" viewBox="0 0 24 24"><path d="M18 6 6 18"/><circle cx="8" cy="7" r="2"/><circle cx="16" cy="17" r="2"/></symbol>
  <symbol id="pmd-i-status" viewBox="0 0 24 24"><path d="M9 6h11"/><path d="M9 12h11"/><path d="M9 18h11"/><path d="m3.5 6 1 1 2-2"/><path d="m3.5 12 1 1 2-2"/><path d="m3.5 18 1 1 2-2"/></symbol>
</defs></svg>
